<svg width="187" height="203" viewBox="0 0 187 203" fill="none" xmlns="http://www.w3.org/2000/svg">
<path fill-rule="evenodd" clip-rule="evenodd" d="M33.5291 20.7679C47.9058 -11.7232 139.309 -5.77647 167.433 36.4024C195.557 78.5803 163.415 172.285 134.603 172.285C105.791 172.285 105.791 109.019 93.9115 90.4389C82.0317 71.8591 19.1533 53.259 33.5291 20.7679Z" fill="#91FFBD" fill-opacity="0.7"/>
<path fill-rule="evenodd" clip-rule="evenodd" d="M3.63671 112.898C11.785 128.161 26.0622 116.658 44.4169 100.691C62.7725 84.724 86.0454 68.9596 77.8965 53.6963C69.7485 38.433 40.4737 40.3821 22.1181 56.3494C3.76283 72.3168 -4.51166 97.6348 3.63671 112.898Z" fill="#2B44FF" fill-opacity="0.6"/>
<path fill-rule="evenodd" clip-rule="evenodd" d="M161.973 159.73C173.585 159.73 186.397 148.611 186.397 134.442C186.397 120.273 173.585 109.154 161.973 109.154C150.36 109.154 146.041 125.369 146.041 136.99C146.041 148.611 150.36 159.73 161.973 159.73Z" fill="#FF73C6" fill-opacity="0.7"/>
<path fill-rule="evenodd" clip-rule="evenodd" d="M73.5831 76.56C76.5156 78.3341 79.3981 79.1919 80.7502 78.842C84.1431 77.9638 84.4548 65.5057 81.8296 60.5943C79.2053 55.6829 65.7119 53.5418 65.0316 63.2738C64.7955 66.6505 66.2079 69.6646 68.2954 72.1242L64.5526 89.6356H75.4235L73.5831 76.56Z" fill="#B28B67"/>
<path fill-rule="evenodd" clip-rule="evenodd" d="M67.4597 74.3144C66.0958 68.2208 62.2086 64.0669 62.8023 61.3433C63.3959 58.6196 65.9667 57.9563 65.9667 57.9563C65.9667 57.9563 67.2967 52.5566 74.5428 53.3625C81.7897 54.1694 86.2128 57.1903 84.3027 63.8385C82.5473 63.8385 80.4274 63.2006 77.4966 64.2928C76.1012 64.8126 75.5007 67.5167 75.5007 67.5167H74.1759C74.1759 67.5167 72.248 64.3081 70.3736 65.1582C68.4992 66.0092 69.5218 69.2909 69.5218 69.2909L68.8695 74.3144H67.4597Z" fill="#191847"/>
<path fill-rule="evenodd" clip-rule="evenodd" d="M44.9053 146.475H79.8975L84.4828 202.859H32.3936L44.9053 146.475Z" fill="#C5CFD6"/>
<path fill-rule="evenodd" clip-rule="evenodd" d="M44.9053 146.475H55.6674L62.1084 202.859H32.3936L44.9053 146.475Z" fill="black" fill-opacity="0.1"/>
<path fill-rule="evenodd" clip-rule="evenodd" d="M99.1236 157.645C95.1914 166.017 89.0468 186.341 89.0468 186.341L94.2631 188.733C94.2631 188.733 107.499 167.37 115.588 152.766C115.211 156.054 114.828 159.755 114.472 163.646C113.628 172.864 114.471 192.777 114.924 198.529C115.21 202.144 120.103 201.387 120.559 198.52C120.637 198.035 120.952 196.329 121.422 193.786C123.73 181.311 129.767 148.666 129.778 140.671C129.782 137.455 123.523 134.566 119.792 136.815C117.229 134.07 112.379 132.488 109.593 137.022C107.821 139.905 103.612 148.089 99.1236 157.645Z" fill="#B28B67"/>
<path fill-rule="evenodd" clip-rule="evenodd" d="M89.4196 178.816L107.324 136.238C111.613 129.311 123.639 137.647 122.176 141.664C118.855 150.785 101.967 180.312 100.978 183.029L89.4196 178.816Z" fill="#1F28CF"/>
<path fill-rule="evenodd" clip-rule="evenodd" d="M90.2927 184.532C89.6651 183.757 88.527 183.557 87.789 184.224C87.1741 184.78 86.5295 185.425 86.2493 185.914C85.6361 186.979 84.8148 189.227 84.8148 189.227C86.0454 189.941 106.94 202.051 106.94 202.051C106.94 202.051 109.447 199.688 107.721 198.384C105.994 197.078 104.871 196.182 104.871 196.182L97.4742 185.951C97.1931 185.562 96.6479 185.483 96.2691 185.775L95.0045 186.753C95.0045 186.753 92.821 186.562 91.7458 185.938C91.2847 185.671 90.7513 185.098 90.2927 184.532Z" fill="#E4E4E4"/>
<path fill-rule="evenodd" clip-rule="evenodd" d="M115.836 196.045C114.906 195.688 113.817 196.086 113.51 197.034C113.255 197.824 113.019 198.706 113.019 199.269C113.019 200.5 113.427 202.859 113.427 202.859C114.848 202.859 138.975 202.859 138.975 202.859C138.975 202.859 139.97 199.555 137.825 199.291C135.679 199.027 134.26 198.815 134.26 198.815L122.76 193.668C122.323 193.472 121.81 193.678 121.627 194.121L121.019 195.601C121.019 195.601 119.033 196.532 117.792 196.532C117.259 196.532 116.514 196.305 115.836 196.045Z" fill="#E4E4E4"/>
<path fill-rule="evenodd" clip-rule="evenodd" d="M131.033 143.943C131.033 156.024 125.318 184.202 125.315 186.862L113.019 186.872C113.019 186.872 115.719 149.157 114.933 148.75C114.148 148.344 82.7502 151.897 73.3342 151.897C59.755 151.897 54.1379 143.301 53.6818 127.377H80.5812C86.0582 127.965 114.626 133.75 125.236 135.738C129.778 136.59 131.033 140.615 131.033 143.943Z" fill="#2B44FF"/>
<path fill-rule="evenodd" clip-rule="evenodd" d="M116.806 75.5221L99.6365 80.6959L104.021 88.0269L117.369 80.1405C123.601 79.7676 126.544 79.1502 126.202 78.289C125.913 77.5629 125.225 77.4389 124.591 77.3251C124.097 77.2359 123.636 77.1535 123.422 76.796C122.935 75.9807 124.645 73.8575 126.352 71.9118C128.061 69.9661 126.694 69.876 125.868 70.0315C123.029 71.189 120.008 73.0192 116.806 75.5221ZM112.568 121.734L98.1197 111.083L94.9256 119.01L109.233 124.966C113.28 129.737 115.543 131.727 116.022 130.934C116.425 130.264 116.109 129.638 115.819 129.062C115.592 128.612 115.381 128.193 115.537 127.807C115.892 126.925 118.61 127.018 121.186 127.216C123.761 127.415 123.011 126.264 122.39 125.697C119.76 124.116 116.487 122.796 112.568 121.734Z" fill="#B28B67"/>
<path fill-rule="evenodd" clip-rule="evenodd" d="M75.6774 82.3996C83.546 97.127 94.923 108.417 111.418 120.154L105.172 127.223C86.7554 120.352 77.0354 116.207 72.2624 102.292C71.0649 98.8001 70.2275 87.6668 69.509 81.8093L75.6774 82.3996Z" fill="#2026A2"/>
<path fill-rule="evenodd" clip-rule="evenodd" d="M53.6818 131.469H88.5593C88.5593 131.469 76.7093 95.1864 76.4519 81.6649C76.4435 81.2054 75.5976 80.3952 75.2239 80.5014C71.121 81.6649 66.4423 79.6317 66.4423 79.6317C58.1745 92.9808 55.315 109.418 53.6818 131.469Z" fill="#F2F2F2"/>
<path fill-rule="evenodd" clip-rule="evenodd" d="M75.1908 99.9985C80.6381 123.456 80.3875 142.658 68.3608 142.658H49.7649C46.8111 122.731 54.5735 95.1023 61.7695 81.1673C62.0447 80.6348 62.6298 79.6318 64.0082 79.6318H69.4114C69.4139 79.6386 69.4165 79.6462 69.419 79.653C71.0445 79.6666 72.8357 79.726 74.7746 79.7906C84.7579 80.1235 98.6785 80.5872 114.343 75.5391L116.189 84.8031C102.051 93.9312 87.7355 101.002 75.1908 99.9985Z" fill="#1F28CF"/>
</svg>
