<svg width="20" height="20" viewBox="0 0 20 20" fill="none" xmlns="http://www.w3.org/2000/svg">
    <path d="M5 18.3333H15C15.442 18.3333 15.866 18.1577 16.1785 17.8451C16.4911 17.5326 16.6667 17.1087 16.6667 16.6666V3.33329C16.6667 2.89127 16.4911 2.46734 16.1785 2.15478C15.866 1.84222 15.442 1.66663 15 1.66663H5C4.55798 1.66663 4.13405 1.84222 3.82149 2.15478C3.50893 2.46734 3.33334 2.89127 3.33334 3.33329V16.6666C3.33334 17.1087 3.50893 17.5326 3.82149 17.8451C4.13405 18.1577 4.55798 18.3333 5 18.3333ZM7.5 15.8333H5.83334V14.1666H7.5V15.8333ZM7.5 12.5H5.83334V10.8333H7.5V12.5ZM7.5 9.16663H5.83334V7.49996H7.5V9.16663ZM10.8333 15.8333H9.16667V14.1666H10.8333V15.8333ZM10.8333 12.5H9.16667V10.8333H10.8333V12.5ZM10.8333 9.16663H9.16667V7.49996H10.8333V9.16663ZM14.1667 15.8333H12.5V10.8333H14.1667V15.8333ZM14.1667 9.16663H12.5V7.49996H14.1667V9.16663ZM5 3.33329H15V5.83329H5V3.33329Z" fill="white"/>
</svg>